<?xml version="1.0" encoding="utf-8"?>

<!DOCTYPE svg PUBLIC "-//W3C//DTD SVG 1.1//EN" "http://www.w3.org/Graphics/SVG/1.1/DTD/svg11.dtd">
<!-- Uploaded to: SVG Repo, www.svgrepo.com, Generator: SVG Repo Mixer Tools -->
<svg height="800px" width="800px" version="1.1" id="_x32_" xmlns="http://www.w3.org/2000/svg" xmlns:xlink="http://www.w3.org/1999/xlink" 
	 viewBox="0 0 512 512"  xml:space="preserve">
<style type="text/css">
	.st0{fill:#000000;}
</style>
<g>
	<path class="st0" d="M491.615,95.734c-5.06-6.18-12.634-9.772-20.622-9.772H123.664l-11.835-40.657v0.008
		c-5.433-18.176-20.341-31.947-38.883-35.92L30.48,0.3C23.297-1.245,16.217,3.339,14.671,10.53
		c-1.536,7.19,3.04,14.271,10.24,15.807l42.449,9.102c9.032,1.935,16.3,8.642,18.949,17.506l77.597,266.547
		c-1.748,0.815-3.438,1.698-5.068,2.674c-8.362,4.984-15.07,11.98-19.568,20.147c-4.305,7.76-6.589,16.555-6.809,25.631h-0.034
		v1.383h0.034c0.17,7.09,1.681,13.89,4.304,20.096c4.202,9.925,11.181,18.321,19.976,24.264c8.788,5.951,19.476,9.44,30.853,9.432
		h249.568c7.361,0,13.32-5.96,13.32-13.312c0-7.352-5.96-13.312-13.32-13.312l-249.568-0.008c-3.974,0-7.692-0.798-11.105-2.233
		c-5.102-2.156-9.492-5.79-12.565-10.358c-2.954-4.39-4.703-9.56-4.839-15.23c0.152-6.767,2.309-12.642,6.095-17.337
		c1.961-2.42,4.38-4.542,7.318-6.3c2.904-1.732,6.326-3.107,10.341-3.973l250.841-40.828c16.386-2.674,29.426-15.205,32.737-31.481
		l30.682-150.839v-0.016c0.356-1.749,0.527-3.532,0.527-5.298C497.626,106.499,495.536,100.54,491.615,95.734z M440.319,263.442
		c-1.104,5.434-5.451,9.611-10.918,10.494l-239.669,39.02l-58.325-200.361h339.586h0.009L440.319,263.442z"/>
	<path class="st0" d="M218.411,444.786c-5.85-3.957-12.972-6.291-20.546-6.282c-5.052,0-9.916,1.026-14.314,2.895
		c-6.605,2.793-12.191,7.436-16.156,13.303c-3.964,5.85-6.291,12.973-6.274,20.546c-0.008,5.043,1.019,9.908,2.887,14.306
		c2.801,6.614,7.436,12.2,13.295,16.156c5.858,3.974,12.989,6.292,20.562,6.292c5.043,0,9.9-1.028,14.297-2.895
		c6.614-2.793,12.2-7.446,16.165-13.304c3.956-5.85,6.282-12.981,6.282-20.554c0-5.042-1.036-9.898-2.895-14.305
		C228.913,454.328,224.269,448.742,218.411,444.786z M211.517,481.012c-1.12,2.649-3.014,4.933-5.382,6.529
		c-2.378,1.596-5.162,2.521-8.27,2.53c-2.08-0.009-4.007-0.416-5.765-1.172c-2.64-1.103-4.933-3.005-6.529-5.365
		c-1.596-2.386-2.521-5.179-2.53-8.287c0.009-2.072,0.424-3.99,1.163-5.764c1.112-2.64,3.014-4.924,5.382-6.528
		c2.378-1.596,5.171-2.514,8.278-2.522c2.072,0,3.99,0.417,5.756,1.163c2.649,1.112,4.924,3.006,6.52,5.383
		c1.605,2.377,2.53,5.162,2.53,8.268C212.672,477.327,212.256,479.246,211.517,481.012z"/>
	<path class="st0" d="M419.943,444.786c-5.858-3.957-12.98-6.291-20.553-6.282c-5.043,0-9.908,1.026-14.306,2.895
		c-6.613,2.793-12.2,7.436-16.164,13.303c-3.956,5.85-6.282,12.973-6.282,20.546c0,5.043,1.036,9.908,2.895,14.306
		c2.793,6.614,7.446,12.2,13.304,16.165c5.85,3.965,12.981,6.283,20.554,6.283c5.042,0,9.907-1.028,14.305-2.895
		c6.605-2.793,12.191-7.446,16.156-13.304c3.964-5.85,6.29-12.981,6.282-20.554c0-5.042-1.027-9.898-2.895-14.305
		C430.436,454.328,425.801,448.742,419.943,444.786z M413.041,481.012c-1.113,2.649-3.014,4.933-5.374,6.529
		c-2.377,1.596-5.179,2.521-8.277,2.53c-2.08-0.009-3.999-0.416-5.765-1.172c-2.649-1.103-4.924-3.005-6.52-5.365
		c-1.613-2.386-2.53-5.179-2.53-8.287c0-2.072,0.408-3.99,1.155-5.764c1.12-2.64,3.013-4.924,5.382-6.528
		c2.377-1.596,5.17-2.514,8.278-2.522c2.08,0,3.998,0.417,5.764,1.163c2.641,1.112,4.925,3.006,6.52,5.383
		c1.596,2.377,2.522,5.162,2.531,8.268C414.204,477.327,413.788,479.246,413.041,481.012z"/>
	<path class="st0" d="M209.718,142.021c-2.173-7.48-10.001-11.768-17.481-9.586c-7.479,2.182-11.758,10.01-9.584,17.481
		l36.523,125.055c2.19,7.471,10.018,11.767,17.489,9.577c7.471-2.174,11.767-10.01,9.577-17.489L209.718,142.021z"/>
	<path class="st0" d="M271.388,141.783c-2.173-7.479-10.001-11.767-17.48-9.593c-7.48,2.19-11.767,10.018-9.585,17.489
		l33.874,115.988c2.19,7.48,10.018,11.767,17.489,9.585c7.471-2.182,11.767-10.009,9.577-17.489L271.388,141.783z"/>
	<path class="st0" d="M333.066,141.546c-2.182-7.48-10.01-11.768-17.48-9.577c-7.48,2.174-11.767,10.01-9.585,17.48l31.302,107.193
		c2.182,7.48,10.018,11.767,17.489,9.586c7.471-2.182,11.767-10.019,9.576-17.49L333.066,141.546z"/>
	<path class="st0" d="M394.728,141.298c-2.173-7.479-10.009-11.758-17.489-9.584c-7.471,2.191-11.758,10.018-9.577,17.489
		l28.56,97.812c2.191,7.48,10.018,11.767,17.489,9.585c7.471-2.19,11.767-10.009,9.585-17.489L394.728,141.298z"/>
</g>
</svg>