<?xml version="1.0" encoding="UTF-8" standalone="no"?>
<svg
   version="1.1"
   width="3902.1309"
   height="998.61548"
   id="svg40"
   viewBox="0 0 3902.1308 998.61548"
   sodipodi:docname="f2d14eb8da1ec9efa12a7c32235ede93.cdr"
   xmlns:inkscape="http://www.inkscape.org/namespaces/inkscape"
   xmlns:sodipodi="http://sodipodi.sourceforge.net/DTD/sodipodi-0.dtd"
   xmlns="http://www.w3.org/2000/svg"
   xmlns:svg="http://www.w3.org/2000/svg">
  <defs
     id="defs44" />
  <sodipodi:namedview
     id="namedview42"
     pagecolor="#ffffff"
     bordercolor="#666666"
     borderopacity="1.0"
     inkscape:pageshadow="2"
     inkscape:pageopacity="0.0"
     inkscape:pagecheckerboard="0" />
  <path
     d="m 1503.717,592.2225 c -134.596,-0.8684 -269.192,-1.7368 -403.7881,-2.6051 -39.0762,-55.5752 -78.1525,-110.2819 -116.36039,-165.857 70.33729,-106.8085 140.67459,-212.7486 211.01179,-319.557 103.335,162.3836 205.8017,324.7671 309.1367,488.0191 z"
     style="fill:#b82227;fill-rule:evenodd"
     id="path2" />
  <path
     d="m 221.14731,943.0404 c 136.3327,1.7367 271.7971,2.6051 408.1298,4.3418 185.8293,-281.349 371.65869,-561.8297 558.35629,-843.1788 -132.8592,0 -265.71849,0 -398.57779,0 -189.3028,279.6123 -378.6055,559.2247 -567.9083,838.837 z"
     style="fill:#b82227;fill-rule:evenodd"
     id="path4" />
  <path
     d="m 18.819112,600.0377 c -4.3418,11.2887 -34.7344,85.0994 -7.8152,168.4621 C 45.738312,875.3082 146.46821,918.7263 164.70381,926.5416 311.45691,712.9247 457.34161,498.4394 604.09471,284.8225 576.30711,238.7994 541.57261,187.5661 497.28621,134.596 451.26311,80.7576 406.10831,35.6028 366.16371,0 c 13.8937,30.3927 34.7344,84.2311 34.7344,152.8316 0,8.6836 0,79.0209 -27.7876,143.2797 C 298.43141,468.0468 88.288012,435.9174 18.819112,600.0377 Z m 37.3396,141.5429 c -13.8938,-52.97 12.157,-114.6237 67.732098,-155.4367 -8.6836,32.9977 -4.3418,55.5752 5.2102,71.2056 23.4458,39.0763 77.2842,29.5243 94.6514,69.4689 12.157,27.7876 -3.4735,56.4435 -5.2102,59.0486 -17.3672,30.3927 -55.5751,41.6814 -85.0994,36.4712 C 76.999312,813.6546 57.027012,745.054 56.158712,741.5806 Z"
     style="fill:#004c99;fill-rule:evenodd"
     id="path6" />
  <path
     d="M 1118.1645,703.3727 H 1059.116 V 949.9873 H 979.22671 V 642.5874 h 138.93779 z"
     style="fill:#004c99;fill-rule:evenodd"
     id="path8" />
  <path
     d="m 1219.7628,642.5874 v 39.9446 h -79.0209 v -39.9446 z m 0,54.7068 v 251.8247 h -79.0209 V 697.2942 Z"
     style="fill:#004c99;fill-rule:evenodd"
     id="path10" />
  <path
     d="m 1475.061,998.6155 h -51.2333 v -48.6282 h -129.3858 v 48.6282 h -51.2333 V 890.0704 h 16.4988 c 9.552,-14.7622 17.3673,-38.2079 24.3141,-70.3373 6.0786,-32.1294 9.552,-69.4689 9.552,-112.0186 v -9.552 h 165.857 v 191.9079 h 16.4989 V 998.6155 Z M 1382.1464,889.202 V 754.606 h -19.9723 v 2.6051 c 0,46.8915 -7.8153,91.1779 -22.5774,131.9909 z"
     style="fill:#004c99;fill-rule:evenodd"
     id="path12" />
  <path
     d="m 1575.7909,697.2942 -1.7367,22.5774 c 6.9469,-8.6836 14.7622,-15.6305 22.5774,-19.9723 7.8153,-4.3419 17.3672,-6.9469 26.9192,-6.9469 12.1571,0 22.5774,3.4734 31.261,9.5519 8.6836,6.0786 13.8938,13.8938 16.4989,21.7091 1.7367,8.6836 3.4734,22.5774 3.4734,42.5497 v 105.9401 c 0,22.5773 -1.7367,39.0762 -4.3418,48.6282 -2.6051,9.552 -8.6836,17.3672 -16.4988,23.4457 -8.6837,6.0786 -18.2356,8.6837 -30.3927,8.6837 -9.552,0 -18.2356,-2.6051 -26.0508,-6.9469 -7.8153,-4.3418 -15.6305,-11.2887 -22.5774,-19.9723 v 58.1802 h -76.4158 v -288.296 h 77.2841 z m 21.7091,73.8107 c 0,-15.6305 -0.8684,-25.1825 -1.7367,-28.6559 -0.8684,-3.4735 -4.3419,-5.2102 -9.552,-5.2102 -5.2102,0 -8.6836,1.7367 -9.552,6.0785 -1.7367,3.4735 -2.6051,13.0254 -2.6051,27.7876 v 104.2033 c 0,15.6305 0.8684,24.3142 2.6051,28.656 1.7367,4.3418 5.2102,6.0785 9.552,6.0785 5.2101,0 7.8152,-1.7367 9.552,-5.2102 1.7367,-3.4734 1.7367,-12.157 1.7367,-25.1825 z"
     style="fill:#004c99;fill-rule:evenodd"
     id="path14" />
  <path
     d="m 1877.1123,785.867 v 61.6537 c 0,22.5774 -0.8683,39.0762 -3.4734,49.4966 -2.6051,10.4203 -6.9469,20.8406 -14.7622,29.5243 -7.8152,9.5519 -17.3672,15.6305 -28.6559,19.9723 -11.2887,4.3418 -25.1825,6.9469 -39.9446,6.9469 -17.3672,0 -31.261,-1.7368 -43.4181,-5.2102 -12.157,-3.4735 -20.8406,-9.552 -27.7875,-16.4989 -6.9469,-7.8152 -11.2887,-16.4988 -13.8938,-27.7875 -2.6051,-10.4204 -4.3418,-26.9192 -4.3418,-47.7599 v -64.2587 c 0,-23.4458 2.6051,-41.6814 7.8152,-54.7068 5.2102,-13.0254 13.8938,-23.4458 27.7876,-32.1294 13.0254,-7.8152 30.3926,-12.157 50.3649,-12.157 17.3673,0 32.1294,2.605 44.2865,7.8152 12.157,5.2102 21.709,12.1571 28.6559,19.9723 6.9469,7.8153 11.2887,16.4989 13.8938,25.1825 2.6051,9.552 3.4734,22.5774 3.4734,39.9446 z m -76.4158,-18.2356 c 0,-13.0254 -0.8683,-20.8406 -1.7367,-24.3141 -1.7367,-3.4734 -4.3418,-5.2101 -8.6836,-5.2101 -4.3418,0 -7.8153,1.7367 -9.552,5.2101 -1.7367,3.4735 -2.6051,11.2887 -2.6051,24.3141 v 113.7554 c 0,12.157 0.8684,19.9723 2.6051,23.4457 1.7367,3.4735 4.3418,5.2102 8.6836,5.2102 4.3418,0 7.8153,-1.7367 8.6836,-5.2102 1.7368,-3.4734 2.6051,-10.4203 2.6051,-21.709 z"
     style="fill:#004c99;fill-rule:evenodd"
     id="path16" />
  <path
     d="m 1985.6575,642.5874 v 39.9446 h -79.0209 v -39.9446 z m 0,54.7068 v 251.8247 h -79.0209 V 697.2942 Z"
     style="fill:#004c99;fill-rule:evenodd"
     id="path18" />
  <path
     d="m 2153.2512,814.5229 c 12.1571,3.4735 20.8407,9.552 26.9192,16.4989 6.0785,6.9469 8.6836,19.104 8.6836,34.7345 0,17.3672 -0.8683,29.5242 -3.4734,37.3395 -2.6051,7.8153 -7.8153,15.6305 -14.7622,23.4458 -6.9468,7.8152 -17.3672,13.8937 -29.5242,17.3672 -13.0255,3.4734 -26.9192,5.2101 -42.5497,5.2101 -30.3927,0 -52.1017,-6.0785 -64.2588,-18.2355 -12.157,-12.1571 -18.2356,-33.8661 -18.2356,-65.1271 v -18.2356 h 72.9424 v 35.6028 c 0,13.0254 4.3418,19.1039 13.0254,19.1039 4.3418,0 8.6836,-1.7367 10.4203,-5.2101 2.6051,-3.4735 3.4735,-13.0254 3.4735,-28.656 v -15.6305 c 0,-6.9468 -2.6051,-12.157 -7.8153,-15.6305 -5.2101,-2.605 -15.6305,-4.3418 -30.3926,-4.3418 v -35.6028 h 6.0785 c 10.4203,0 17.3672,0 20.8407,-0.8683 3.4734,-0.8684 6.0785,-2.6051 7.8152,-5.2102 1.7368,-3.4735 3.4735,-8.6836 3.4735,-15.6305 v -5.2102 c 0,-10.4203 -0.8684,-17.3672 -3.4735,-20.8407 -2.6051,-2.605 -6.0785,-4.3418 -10.4203,-4.3418 -9.552,0 -13.8938,5.2102 -13.8938,16.4989 v 20.8407 h -72.9423 v -11.2887 c 0,-26.9192 6.0785,-45.1548 19.1039,-56.4435 13.0254,-11.2887 34.7345,-16.4989 65.1271,-16.4989 29.5243,0 50.365,5.2102 65.1271,16.4989 13.8938,10.4203 20.8407,27.7876 20.8407,50.365 0,15.6305 -2.6051,26.9192 -6.9469,33.866 -5.2102,6.0786 -13.0254,12.1571 -25.1825,15.6305 z"
     style="fill:#004c99;fill-rule:evenodd"
     id="path20" />
  <path
     d="m 2391.1822,785.867 v 61.6537 c 0,22.5774 -0.8683,39.0762 -3.4734,49.4966 -2.6051,10.4203 -6.9469,20.8406 -14.7622,29.5243 -7.8152,9.5519 -17.3672,15.6305 -28.6559,19.9723 -11.2887,4.3418 -25.1825,6.9469 -39.9446,6.9469 -17.3672,0 -31.261,-1.7368 -43.4181,-5.2102 -12.157,-3.4735 -20.8407,-9.552 -27.7875,-16.4989 -6.9469,-7.8152 -11.2887,-16.4988 -13.8938,-27.7875 -2.6051,-10.4204 -4.3418,-26.9192 -4.3418,-47.7599 v -64.2587 c 0,-23.4458 2.6051,-41.6814 7.8152,-54.7068 5.2102,-13.0254 13.8938,-23.4458 27.7876,-32.1294 13.0254,-7.8152 30.3926,-12.157 50.3649,-12.157 17.3673,0 32.1294,2.605 44.2865,7.8152 12.157,5.2102 21.709,12.1571 28.6559,19.9723 6.9469,7.8153 11.2887,16.4989 13.8938,25.1825 1.7367,9.552 3.4734,22.5774 3.4734,39.9446 z m -77.2841,-18.2356 c 0,-13.0254 -0.8684,-20.8406 -1.7368,-24.3141 -1.7367,-3.4734 -4.3418,-5.2101 -8.6836,-5.2101 -4.3418,0 -7.8152,1.7367 -9.552,5.2101 -1.7367,3.4735 -2.605,11.2887 -2.605,24.3141 v 113.7554 c 0,12.157 0.8683,19.9723 2.605,23.4457 1.7368,3.4735 4.3419,5.2102 8.6837,5.2102 4.3418,0 7.8152,-1.7367 8.6836,-5.2102 1.7367,-3.4734 2.6051,-10.4203 2.6051,-21.709 z"
     style="fill:#004c99;fill-rule:evenodd"
     id="path22" />
  <path
     d="M 2537.0669,949.9873 V 750.2642 h -26.9192 v 127.6491 c 0,23.4458 -2.6051,39.9446 -7.8152,49.4966 -5.2102,9.552 -13.8938,16.4989 -25.1825,18.2356 -11.2887,2.6051 -30.3927,3.4734 -56.4435,3.4734 h -12.1571 V 908.306 c 9.552,0 16.4989,-1.7368 19.9723,-3.4735 3.4735,-2.6051 5.2102,-10.4203 5.2102,-25.1825 V 697.2942 h 179.7508 v 251.8247 h -76.4158 z"
     style="fill:#004c99;fill-rule:evenodd"
     id="path24" />
  <path
     d="m 2814.0742,949.9873 h -76.4158 v -98.9932 c -9.552,0 -16.4989,1.7367 -20.8407,6.0786 -3.4734,4.3418 -5.2102,12.157 -5.2102,23.4457 v 69.4689 h -70.3372 v -59.0486 c 0,-14.7621 0.8683,-26.0508 2.6051,-32.9977 1.7367,-6.9469 5.2101,-12.157 11.2887,-15.6305 6.0785,-3.4734 15.6305,-7.8152 30.3926,-11.2887 -18.2356,-1.7367 -30.3926,-6.9469 -35.6028,-15.6305 -5.2102,-8.6836 -7.8153,-24.3141 -7.8153,-46.8915 0,-25.1825 6.9469,-43.4181 21.7091,-53.8384 14.7621,-11.2887 46.0231,-16.4989 93.783,-16.4989 h 56.4435 z m -76.4158,-143.2796 v -59.9169 h -7.8153 c -5.2101,0 -10.4203,1.7367 -13.0254,5.2101 -3.4734,3.4735 -5.2102,10.4204 -5.2102,22.5774 v 3.4735 c 0,12.157 1.7368,19.9723 5.2102,23.4457 4.3418,3.4735 10.4203,5.2102 20.8407,5.2102 z"
     style="fill:#004c99;fill-rule:evenodd"
     id="path26" />
  <path
     d="M 2845.3352,949.9873 V 698.1625 h 76.4158 v 198.8548 h 26.9192 V 698.1625 h 76.4158 v 198.8548 h 16.4988 v 101.5982 h -51.2333 v -48.6282 z"
     style="fill:#004c99;fill-rule:evenodd"
     id="path28" />
  <path
     d="m 3143.1831,642.5874 v 39.9446 h -79.0209 v -39.9446 z m 0,54.7068 v 251.8247 h -79.0209 V 697.2942 Z"
     style="fill:#004c99;fill-rule:evenodd"
     id="path30" />
  <path
     d="m 3346.3797,949.9873 h -76.4158 v -98.9932 c -9.552,0 -16.4989,1.7367 -20.8407,6.0786 -3.4735,4.3418 -5.2102,12.157 -5.2102,23.4457 v 69.4689 h -70.3372 v -59.0486 c 0,-14.7621 0.8683,-26.0508 2.605,-32.9977 1.7368,-6.9469 5.2102,-12.157 11.2887,-15.6305 6.0786,-3.4734 15.6305,-7.8152 30.3927,-11.2887 -18.2356,-1.7367 -30.3927,-6.9469 -35.6028,-15.6305 -5.2102,-8.6836 -7.8153,-24.3141 -7.8153,-46.8915 0,-25.1825 6.9469,-43.4181 21.709,-53.8384 14.7622,-11.2887 46.0232,-16.4989 93.7831,-16.4989 h 56.4435 z m -76.4158,-143.2796 v -59.9169 h -7.8153 c -5.2102,0 -10.4203,1.7367 -13.0254,5.2101 -3.4735,3.4735 -5.2102,10.4204 -5.2102,22.5774 v 3.4735 c 0,12.157 1.7367,19.9723 5.2102,23.4457 4.3418,3.4735 11.2887,5.2102 20.8407,5.2102 z"
     style="fill:#004c99;fill-rule:evenodd"
     id="path32" />
  <path
     d="m 3471.4237,797.1557 v 52.9701 h -100.7299 v -52.9701 z"
     style="fill:#004c99;fill-rule:evenodd"
     id="path34" />
  <path
     d="m 3578.2321,642.5874 v 307.3999 h -79.8892 V 642.5874 Z"
     style="fill:#b82227;fill-rule:evenodd"
     id="path36" />
  <path
     d="m 3902.1309,798.8924 c 0,19.9724 -0.8684,34.7345 -2.6051,43.4181 -2.6051,12.1571 -8.6836,23.4458 -16.4989,32.9977 -13.0254,15.6305 -39.0762,22.5774 -75.5474,22.5774 h -14.7621 v 51.2333 h -79.8893 v -51.2333 h -12.157 c -37.3396,0 -62.522,-7.8152 -76.4158,-22.5774 -8.6836,-9.5519 -13.8938,-20.8406 -16.4989,-32.9977 -1.7367,-8.6836 -2.6051,-23.4457 -2.6051,-43.4181 v -5.2101 c 0,-19.9723 0.8684,-34.7345 2.6051,-43.4181 2.6051,-12.157 8.6836,-23.4457 16.4989,-32.9977 13.0254,-14.7622 38.2079,-22.5774 76.4158,-22.5774 2.6051,0 6.9469,0 12.157,-0.8684 V 641.719 h 79.8893 v 52.1017 c 6.0785,0 11.2887,0.8684 13.8937,0.8684 37.3396,0 62.5221,7.8152 75.5475,22.5774 8.6836,9.552 13.8938,20.8407 16.4988,32.9977 1.7368,8.6836 2.6051,23.4458 2.6051,43.4181 v 5.2101 z m -190.1711,52.1017 V 741.5806 h -6.0786 c -6.0785,0 -11.2887,3.4734 -14.7621,9.552 -4.3418,6.0785 -6.0785,14.7621 -6.0785,25.1824 v 39.9447 c 0,10.4203 1.7367,19.1039 6.0785,25.1824 4.3418,6.0786 9.552,9.552 14.7621,9.552 z m 110.2818,-34.7344 V 776.315 c 0,-10.4203 -1.7367,-19.1039 -6.0785,-25.1824 -4.3418,-6.0786 -9.552,-9.552 -15.6305,-9.552 h -7.8152 v 109.4135 h 7.8152 c 6.0785,0 11.2887,-3.4734 15.6305,-9.552 3.4735,-6.0785 6.0785,-14.7621 6.0785,-25.1824 z"
     style="fill:#b82227;fill-rule:evenodd"
     id="path38" />
</svg>
